<?xml version="1.0" standalone="no"?>
<!DOCTYPE svg PUBLIC "-//W3C//DTD SVG 20010904//EN" "http://www.w3.org/TR/2001/REC-SVG-20010904/DTD/svg10.dtd">
<svg version="1.0" xmlns="http://www.w3.org/2000/svg" width="386pt" height="395pt" viewBox="0 0 386 395" preserveAspectRatio="xMidYMid meet">
<g fill="#000000" stroke="none">
<path d="M42.500000,393.314153 C35.887085,389.774543 32.114633,385.618236 32.035435,381.784796C31.978886,379.047619 37.649913,373.353351 43.174003,370.600581L48.258912,368.066664 48.403843,361.283332 C48.744132,345.356383 62.340775,329.582436 81.996702,322.311066C84.473516,321.394811 86.676387,320.511103 86.891970,320.347270C87.107554,320.183438 85.045419,316.775779 82.309448,312.774696C67.875396,291.666346 60.352359,270.973104 57.893658,245.615402C57.220899,238.676931 56.258856,233.000000 55.755785,233.000000C53.349154,233.000000 40.441085,238.894584 31.107289,244.255955C17.303617,252.184841 13.231893,253.951841 8.704545,253.978038C4.237278,254.003887 -0.000000,250.463537 -0.000000,246.705177C0.000000,238.847098 14.594078,220.261970 31.039563,207.177210C70.490543,175.788252 78.272704,162.109954 81.491775,118.500000C83.142500,96.137012 85.450629,86.689500 92.974383,71.500000C107.172402,42.836011 133.307589,21.944889 165.830461,13.262604C174.365711,10.984039 177.494192,10.674811 192.500000,10.626508C206.818492,10.580418 210.884371,10.919066 218.276522,12.773440C260.071750,23.258074 291.869455,54.415405 301.571710,94.391146C302.387162,97.751016 303.495857,107.459593 304.035477,115.965762C304.575097,124.471932 305.527586,134.371932 306.152118,137.965762C308.009883,148.656151 312.483180,161.509490 317.038013,169.244727C322.322211,178.218606 336.947156,193.032039 353.616167,206.294304C377.833021,225.561816 390.882519,245.818207 383.124905,252.099942C379.092039,255.365559 374.087421,254.567577 363.766376,249.013242C349.228631,241.189664 334.745641,234.122959 331.889671,233.459599C329.572894,232.921478 329.207405,233.212975 328.639671,236.051647C328.287852,237.810741 328.000000,241.384804 328.000000,243.994010C328.000000,262.641871 317.985036,291.227105 304.251941,311.776965C301.209701,316.329296 298.895962,320.191109 299.110298,320.358773C299.324634,320.526436 302.117327,321.703673 305.316283,322.974854C324.476834,330.588752 337.182312,345.737697 337.498001,361.345631L337.637201,368.227784 342.609674,370.591101 C349.224248,373.734876 353.333333,378.106531 353.333333,382.000000C353.333333,385.588989 349.329784,390.241969 343.789838,393.091583C340.187403,394.944588 335.803040,394.998837 192.789838,394.959962C59.514424,394.923734 45.214554,394.767138 42.500000,393.314153 Z"/>
</g></svg>
